HIERARCHY
ROOT Hips
{
	OFFSET -3.958830 18.904000 13.208200
	CHANNELS 6 Xposition Yposition Zposition Zrotation Yrotation Xrotation 
	JOINT LHipJoint
	{
		OFFSET 0.000000 0.000000 0.000000
		CHANNELS 3 Zrotation Yrotation Xrotation
		JOINT LeftUpLeg
		{
			OFFSET 1.800000 -1.400000 0.085000
			CHANNELS 3 Zrotation Yrotation Xrotation
			JOINT LeftLeg
			{
				OFFSET 2.215000 -6.000000 0.000000
				CHANNELS 3 Zrotation Yrotation Xrotation
				JOINT LeftFoot
				{
					OFFSET 2.500000 -6.900000 0.000000
					CHANNELS 3 Zrotation Yrotation Xrotation
					JOINT LeftToeBase
					{
						OFFSET 0.200000 -0.500000 1.950000
						CHANNELS 3 Zrotation Yrotation Xrotation
						End Site
						{
							OFFSET 0.000000 0.000000 0.000000
						}
					}
				}
			}
		}
	}
	JOINT RHipJoint
	{
		OFFSET 0.000000 0.000000 0.000000
		CHANNELS 3 Zrotation Yrotation Xrotation
		JOINT RightUpLeg
		{
			OFFSET -1.800000 -1.400000 0.085000
			CHANNELS 3 Zrotation Yrotation Xrotation
			JOINT RightLeg
			{
				OFFSET -2.215000 -6.000000 0.000000
				CHANNELS 3 Zrotation Yrotation Xrotation
				JOINT RightFoot
				{
					OFFSET -2.500000 -6.900000 0.000000
					CHANNELS 3 Zrotation Yrotation Xrotation
					JOINT RightToeBase
					{
						OFFSET -0.200000 -0.500000 1.950000
						CHANNELS 3 Zrotation Yrotation Xrotation
						End Site
						{
							OFFSET 0.000000 0.000000 0.000000
						}
					}
				}
			}
		}
	}
	JOINT LowerBack
	{
		OFFSET 0.000000 0.000000 0.000000
		CHANNELS 3 Zrotation Yrotation Xrotation
		JOINT Spine
		{
			OFFSET -0.087000 1.940000 -0.288900
			CHANNELS 3 Zrotation Yrotation Xrotation
			JOINT Spine1
			{
				OFFSET 0.000000 1.950000 0.060000
				CHANNELS 3 Zrotation Yrotation Xrotation
				JOINT Neck
				{
					OFFSET 0.000000 0.000000 0.000000
					CHANNELS 3 Zrotation Yrotation Xrotation
					JOINT Neck1
					{
						OFFSET 0.000000 1.600000 0.340000
						CHANNELS 3 Zrotation Yrotation Xrotation
						JOINT Head
						{
							OFFSET 0.000000 1.667000 -0.240000
							CHANNELS 3 Zrotation Yrotation Xrotation
							End Site
							{
								OFFSET 0.000000 0.000000 0.000000
							}
						}
					}
				}
				JOINT LeftShoulder
				{
					OFFSET 0.000000 0.000000 0.000000
					CHANNELS 3 Zrotation Yrotation Xrotation
					JOINT LeftArm
					{
						OFFSET 2.700000 1.550000 -0.730000
						CHANNELS 3 Zrotation Yrotation Xrotation
						JOINT LeftForeArm
						{
							OFFSET 5.450000 0.000000 0.000000
							CHANNELS 3 Zrotation Yrotation Xrotation
							JOINT LeftHand
							{
								OFFSET 3.450000 0.000000 0.000000
								CHANNELS 3 Zrotation Yrotation Xrotation
								JOINT LeftHandIndex1
								{
									OFFSET 0.750000 0.000000 0.000000
									CHANNELS 3 Zrotation Yrotation Xrotation
									End Site
									{
										OFFSET 0.000000 0.000000 0.000000
									}
								}
							}
						}
					}
				}
				JOINT RightShoulder
				{
					OFFSET 0.000000 0.000000 0.000000
					CHANNELS 3 Zrotation Yrotation Xrotation
					JOINT RightArm
					{
						OFFSET -2.700000 1.550000 -0.730000
						CHANNELS 3 Zrotation Yrotation Xrotation
						JOINT RightForeArm
						{
							OFFSET -5.450000 0.000000 0.000000
							CHANNELS 3 Zrotation Yrotation Xrotation
							JOINT RightHand
							{
								OFFSET -3.450000 0.000000 0.000000
								CHANNELS 3 Zrotation Yrotation Xrotation
								JOINT RightHandIndex1
								{
									OFFSET -0.750000 0.000000 0.000000
									CHANNELS 3 Zrotation Yrotation Xrotation
									End Site
									{
										OFFSET 0.000000 0.000000 0.000000
									}
								}
							}
						}
					}
				}
			}
		}
	}
}
MOTION
Frames: 7
Frame Time: 0.016667
0.227300 16.921420 -0.259380 -3.299972 -27.804858 11.847661 -15.263048 13.540115 2.275166 13.610705 -1.663536 -9.461012 -4.824808 5.752941 12.895220 -0.188340 4.944054 3.254212 0.272330 0.057890 -0.087180 18.151174 -10.212721 2.955140 -16.644327 1.005997 -20.817097 5.729976 -2.827251 0.408564 0.160589 -3.590774 3.266042 0.239120 1.026760 0.580620 -3.130887 -2.556274 -6.625773 4.324451 -3.253762 1.132938 -0.229744 -3.911243 -1.164172 1.739743 0.089775 -5.279916 0.290792 4.495990 15.141044 -0.549000 2.835590 6.218860 -4.581463 12.645437 1.589429 -31.968108 3.388867 -1.907062 80.919115 -62.346855 -45.729773 -3.975588 2.383527 -0.178860 0.827320 -0.403530 0.592180 2.230695 -13.753529 0.751091 34.828848 -14.834676 -13.326052 -53.582025 68.825157 -28.541280 1.429429 -1.788151 -0.208640 0.054180 -0.174070 0.242070 
0.225110 16.921220 -0.258080 -3.351612 -27.826432 11.897340 -15.265186 13.537267 2.271863 13.706788 -1.665719 -9.372683 -4.769012 5.728187 12.799451 -0.190242 4.940657 3.252824 0.279790 0.065180 -0.079010 18.150793 -10.208729 2.953819 -16.570803 1.013290 -20.788955 5.704132 -2.810907 0.351985 0.161060 -3.594474 3.262741 0.244100 1.018720 0.582590 -3.128800 -2.555643 -6.622011 4.372774 -3.310861 1.053727 -0.145172 -3.982196 -1.133876 1.763791 0.124515 -5.240628 0.351460 4.371284 15.152093 -0.795310 2.837490 6.240040 -4.582445 12.470142 1.416462 -31.476395 3.860901 -2.622787 75.563713 -62.560442 -41.662890 -3.970731 2.530077 -0.181750 0.827730 -0.403260 0.591000 2.179837 -13.608064 0.820344 34.030710 -14.832828 -12.993537 -49.629540 67.636524 -25.762733 1.501859 -1.952623 -0.205530 0.044730 -0.180360 0.239710 
0.220970 16.920630 -0.255890 -3.450529 -27.952087 11.976824 -15.268869 13.532927 2.261406 13.855571 -1.666182 -9.198854 -4.631930 5.684692 12.666508 -0.200550 4.945448 3.253707 0.284470 0.068770 -0.072770 18.150521 -10.203977 2.952518 -16.463509 1.027919 -20.807742 5.679024 -2.788460 0.292984 0.169251 -3.600190 3.265301 0.254160 1.017830 0.579640 -3.125476 -2.547632 -6.610405 4.411020 -3.357741 0.892687 0.037455 -4.059111 -0.981502 1.800801 0.223662 -5.218686 0.530108 4.104249 15.107022 -1.175530 2.755360 6.326000 -4.540850 12.113402 1.192378 -30.610253 4.431595 -3.454225 66.460083 -61.466139 -34.645345 -4.020440 2.819424 -0.187790 0.835950 -0.411470 0.591080 2.063945 -13.324541 0.956946 32.803797 -14.775126 -12.435760 -43.933861 64.942008 -21.532897 1.597366 -2.155791 -0.211520 0.042690 -0.185600 0.234880 
0.214250 16.918380 -0.257260 -3.566115 -28.159080 12.093842 -15.270505 13.520426 2.254540 14.074969 -1.677479 -9.017326 -4.597775 5.673986 12.549652 -0.203848 4.959491 3.247841 0.298160 0.086710 -0.057660 18.152980 -10.197814 2.952343 -16.342455 1.048907 -20.962161 5.722726 -2.771978 0.317282 0.173009 -3.593364 3.264487 0.269440 1.011170 0.579010 -3.131068 -2.527737 -6.600646 4.507060 -3.440993 0.754205 0.163574 -4.173963 -0.844610 1.800001 0.306006 -5.175460 0.683923 3.870894 15.005059 -1.524460 2.686500 6.169150 -4.657137 11.627747 0.950950 -29.062012 5.005363 -3.948201 55.893692 -58.068770 -26.340981 -4.105573 3.133360 -0.198130 0.840350 -0.412990 0.589420 2.179724 -12.904919 1.071943 31.220618 -14.648950 -11.705884 -39.349722 60.746038 -17.598557 1.692960 -2.301561 -0.208490 0.041070 -0.194020 0.232160 
0.208100 16.916090 -0.261900 -3.636747 -28.302184 12.092865 -15.272825 13.522214 2.247647 14.222006 -1.684502 -8.774556 -4.467762 5.633871 12.439009 -0.213810 4.964234 3.241902 0.315820 0.109630 -0.039450 18.153213 -10.196480 2.945369 -16.238691 1.035933 -21.045911 5.764175 -2.775191 0.430565 0.170270 -3.583713 3.257288 0.288140 0.998060 0.578520 -3.130344 -2.532152 -6.589876 4.558368 -3.588630 0.675216 0.272349 -4.345427 -0.566496 1.760127 0.391744 -5.152118 0.808482 3.695908 15.079916 -1.730920 2.611620 5.803540 -5.123625 10.828780 0.746831 -27.011307 5.446647 -4.144988 46.176741 -52.338125 -18.660695 -4.177541 3.345122 -0.198500 0.836810 -0.406380 0.585870 2.724849 -12.204279 1.206120 29.250574 -14.588474 -10.892637 -36.479152 55.305465 -14.481529 1.786281 -2.381317 -0.206110 0.041510 -0.201810 0.227560 
0.201080 16.914740 -0.264320 -3.625798 -28.508301 12.068980 -15.279664 13.525252 2.238133 14.271482 -1.684424 -8.481908 -4.327025 5.587097 12.299879 -0.227694 4.977648 3.242504 0.326140 0.121770 -0.023810 18.150313 -10.184138 2.943757 -16.204852 1.017499 -21.102000 5.777551 -2.763727 0.402830 0.171291 -3.588675 3.251622 0.304730 0.997780 0.578530 -3.119801 -2.554667 -6.578186 4.499517 -3.697431 0.545320 0.405209 -4.484642 -0.227751 1.729899 0.518356 -5.182777 1.008780 3.398072 15.113838 -2.142620 2.565210 5.648020 -5.851604 9.861895 0.575531 -24.652560 5.718978 -4.070283 38.390550 -44.927253 -12.611150 -4.247344 3.446486 -0.201610 0.845180 -0.407880 0.584580 3.514354 -11.380008 1.423133 27.249880 -14.767389 -10.014596 -34.896252 48.986744 -12.052544 1.876896 -2.424546 -0.212370 0.047460 -0.207630 0.222000 
0.192430 16.912240 -0.266090 -3.533714 -28.688588 12.077321 -15.293587 13.525592 2.232702 14.297031 -1.705385 -8.310823 -4.301862 5.571802 12.218434 -0.247227 5.006418 3.236374 0.336350 0.130720 -0.010050 18.142025 -10.152702 2.945894 -16.271435 0.997199 -21.146695 5.837425 -2.746972 0.276684 0.173236 -3.611803 3.234830 0.323280 1.002000 0.583840 -3.093334 -2.607960 -6.565580 4.248762 -3.745281 0.355353 0.619291 -4.573226 0.147798 1.697025 0.696949 -5.271877 1.310994 2.981055 15.002748 -2.592020 2.421270 5.578550 -6.414651 8.993419 0.453253 -22.493874 5.530579 -3.732837 32.359895 -36.867217 -8.310666 -4.315748 3.489785 -0.208960 0.859640 -0.416460 0.581640 4.156083 -10.706765 1.692845 25.624307 -15.114220 -9.107663 -33.465120 42.154683 -9.864973 1.966767 -2.460866 -0.219260 0.048390 -0.209170 0.215490 
